<svg width="160" height="170" viewBox="0 0 160 170" fill="none" xmlns="http://www.w3.org/2000/svg">
<path d="M140 106C142.209 106 144.013 107.793 143.875 109.997C143.435 117.035 141.834 123.96 139.128 130.492C135.912 138.257 131.198 145.312 125.255 151.255C119.312 157.198 112.257 161.912 104.492 165.128C96.7269 168.345 88.4046 170 80 170C71.5954 170 63.2731 168.345 55.5083 165.128C47.7434 161.912 40.6881 157.198 34.7452 151.255C28.8022 145.312 24.088 138.257 20.8717 130.492C18.1664 123.96 16.5654 117.035 16.125 109.997C15.987 107.793 17.7909 106 20 106L24.8 106C27.0091 106 28.7838 107.794 28.9562 109.996C29.3754 115.351 30.6354 120.615 32.6974 125.593C35.2704 131.805 39.0418 137.45 43.7961 142.204C48.5505 146.958 54.1947 150.73 60.4066 153.303C66.6185 155.876 73.2763 157.2 80 157.2C86.7237 157.2 93.3815 155.876 99.5934 153.303C105.805 150.73 111.45 146.958 116.204 142.204C120.958 137.45 124.73 131.805 127.303 125.593C129.365 120.615 130.625 115.351 131.044 109.996C131.216 107.794 132.991 106 135.2 106H140Z" fill="#181D31"/>
<path d="M20.5359 88C22.0755 85.3333 25.9245 85.3333 27.4641 88L41.3205 112C42.8601 114.667 40.9356 118 37.8564 118H10.1436C7.06439 118 5.13989 114.667 6.67949 112L20.5359 88Z" fill="#181D31"/>
<path d="M132.536 88C134.075 85.3333 137.925 85.3333 139.464 88L153.321 112C154.86 114.667 152.936 118 149.856 118H122.144C119.064 118 117.14 114.667 118.679 112L132.536 88Z" fill="#181D31"/>
<rect x="72" y="42" width="16" height="128" rx="4" fill="#181D31"/>
<rect x="44" y="78" width="16" height="72" rx="4" transform="rotate(-90 44 78)" fill="#181D31"/>
<path d="M104 24C104 37.2548 93.2548 48 80 48C66.7452 48 56 37.2548 56 24C56 10.7452 66.7452 0 80 0C93.2548 0 104 10.7452 104 24ZM68 24C68 30.6274 73.3726 36 80 36C86.6274 36 92 30.6274 92 24C92 17.3726 86.6274 12 80 12C73.3726 12 68 17.3726 68 24Z" fill="#181D31"/>
</svg>
