<svg width="41" height="44" viewBox="0 0 41 44" fill="none" xmlns="http://www.w3.org/2000/svg">
<path d="M36.0047 40C33.2247 40 30.4447 39.06 28.0047 37.36C23.1247 40.78 16.8847 40.78 12.0047 37.36C9.56466 39.06 6.78466 40 4.00466 40H0.00466013V44H4.00466C6.76466 44 9.48466 43.3 12.0047 42.02C17.0447 44.6 22.9647 44.6 28.0047 42.02C30.5247 43.32 33.2447 44 36.0047 44H40.0047V40H36.0047ZM3.90466 36H4.00466C7.20466 36 10.0447 34.24 12.0047 32C13.9647 34.24 16.8047 36 20.0047 36C23.2047 36 26.0447 34.24 28.0047 32C29.9647 34.24 32.8047 36 36.0047 36H36.1047L39.8847 22.64C40.0447 22.12 40.0047 21.56 39.7647 21.08C39.5247 20.6 39.0847 20.24 38.5647 20.08L36.0047 19.24V10C36.0047 7.8 34.2047 6 32.0047 6H26.0047V0H14.0047V6H8.00466C5.80466 6 4.00466 7.8 4.00466 10V19.24L1.42466 20.08C0.90466 20.24 0.46466 20.6 0.22466 21.08C-0.0153401 21.56 -0.07534 22.12 0.10466 22.64L3.90466 36ZM8.00466 10H32.0047V17.94L20.0047 14L8.00466 17.94V10Z" fill="#181D31"/>
</svg>
