<svg width="38" height="38" viewBox="0 0 38 38" fill="none" xmlns="http://www.w3.org/2000/svg">
<path d="M38 19C38 29.4934 29.4934 38 19 38C8.50659 38 0 29.4934 0 19C0 8.50659 8.50659 0 19 0C29.4934 0 38 8.50659 38 19ZM7.98 19C7.98 25.0862 12.9138 30.02 19 30.02C25.0862 30.02 30.02 25.0862 30.02 19C30.02 12.9138 25.0862 7.98 19 7.98C12.9138 7.98 7.98 12.9138 7.98 19Z" fill="#F87D38"/>
<rect y="32.3137" width="16" height="8" rx="4" transform="rotate(-45 0 32.3137)" fill="#181D31"/>
<rect width="16" height="8" rx="4" transform="matrix(0.707107 0.707107 0.707107 -0.707107 0 5.65686)" fill="#181D31"/>
<rect width="16" height="8" rx="4" transform="matrix(0.707107 0.707107 0.707107 -0.707107 21 26.6569)" fill="#181D31"/>
<rect x="21" y="11.3137" width="16" height="8" rx="4" transform="rotate(-45 21 11.3137)" fill="#181D31"/>
</svg>
