<svg width="80" height="80" viewBox="0 0 80 80" fill="none" xmlns="http://www.w3.org/2000/svg">
<circle cx="39.9999" cy="40" r="24" transform="rotate(45 39.9999 40)" fill="#F7F1DE"/>
<circle cx="14.5441" cy="14.5442" r="4" transform="rotate(45 14.5441 14.5442)" fill="#F7F1DE"/>
<circle cx="65.4557" cy="65.4559" r="4" transform="rotate(45 65.4557 65.4559)" fill="#F7F1DE"/>
<circle cx="14.5441" cy="14.5442" r="4" transform="rotate(45 14.5441 14.5442)" fill="#F7F1DE"/>
<circle cx="65.4557" cy="65.4559" r="4" transform="rotate(45 65.4557 65.4559)" fill="#F7F1DE"/>
<circle cx="14.544" cy="65.4559" r="4" transform="rotate(-45 14.544 65.4559)" fill="#F7F1DE"/>
<circle cx="65.4557" cy="14.5441" r="4" transform="rotate(-45 65.4557 14.5441)" fill="#F7F1DE"/>
<circle cx="3.99985" cy="40" r="4" fill="#F7F1DE"/>
<circle cx="75.9999" cy="40.0001" r="4" fill="#F7F1DE"/>
<circle cx="39.9998" cy="4" r="4" transform="rotate(90 39.9998 4)" fill="#F7F1DE"/>
<circle cx="39.9998" cy="76" r="4" transform="rotate(90 39.9998 76)" fill="#F7F1DE"/>
</svg>